<svg width="19" height="20" viewBox="0 0 19 20" fill="none" xmlns="http://www.w3.org/2000/svg">
<path d="M12.375 9.94724C12.375 10.5406 12.1991 11.1206 11.8694 11.6139C11.5398 12.1073 11.0712 12.4918 10.523 12.7189C9.97487 12.9459 9.37167 13.0053 8.78973 12.8896C8.20779 12.7738 7.67324 12.4881 7.25368 12.0686C6.83412 11.649 6.5484 11.1144 6.43264 10.5325C6.31689 9.95056 6.3763 9.34736 6.60336 8.79918C6.83042 8.25101 7.21494 7.78247 7.70829 7.45283C8.20164 7.12318 8.78166 6.94724 9.375 6.94724C10.1699 6.94971 10.9315 7.26657 11.4936 7.82865C12.0557 8.39072 12.3725 9.15235 12.375 9.94724ZM18.75 5.82224V14.0722C18.75 15.4646 18.1969 16.8 17.2123 17.7845C16.2277 18.7691 14.8924 19.3222 13.5 19.3222H5.25C3.85761 19.3222 2.52226 18.7691 1.53769 17.7845C0.553123 16.8 0 15.4646 0 14.0722V5.82224C0 4.42985 0.553123 3.09449 1.53769 2.10992C2.52226 1.12536 3.85761 0.572235 5.25 0.572235H13.5C14.8924 0.572235 16.2277 1.12536 17.2123 2.10992C18.1969 3.09449 18.75 4.42985 18.75 5.82224ZM13.875 9.94724C13.875 9.05722 13.6111 8.18719 13.1166 7.44717C12.6221 6.70715 11.9193 6.13037 11.0971 5.78978C10.2748 5.44918 9.37001 5.36007 8.49709 5.5337C7.62418 5.70734 6.82236 6.13592 6.19302 6.76525C5.56368 7.39459 5.1351 8.19641 4.96147 9.06933C4.78783 9.94224 4.87695 10.847 5.21754 11.6693C5.55814 12.4916 6.13491 13.1944 6.87493 13.6888C7.61495 14.1833 8.48498 14.4472 9.375 14.4472C10.5685 14.4472 11.7131 13.9731 12.557 13.1292C13.4009 12.2853 13.875 11.1407 13.875 9.94724ZM15.375 5.07224C15.375 4.84973 15.309 4.63222 15.1854 4.44722C15.0618 4.26221 14.8861 4.11802 14.6805 4.03287C14.475 3.94772 14.2488 3.92544 14.0305 3.96885C13.8123 4.01226 13.6118 4.11941 13.4545 4.27674C13.2972 4.43407 13.19 4.63453 13.1466 4.85276C13.1032 5.07099 13.1255 5.29719 13.2106 5.50275C13.2958 5.70832 13.44 5.88402 13.625 6.00764C13.81 6.13126 14.0275 6.19724 14.25 6.19724C14.5484 6.19724 14.8345 6.07871 15.0455 5.86773C15.2565 5.65675 15.375 5.3706 15.375 5.07224Z" fill="black"/>
</svg>
