<!-- <svg width="21" height="21" viewBox="0 0 21 21" fill="none" xmlns="http://www.w3.org/2000/svg">
<path d="M20.67 10.9722C20.67 5.45223 16.19 0.972229 10.67 0.972229C5.14998 0.972229 0.669983 5.45223 0.669983 10.9722C0.669983 15.8122 4.10998 19.8422 8.66998 20.7722V13.9722H6.66998V10.9722H8.66998V8.47223C8.66998 6.54223 10.24 4.97223 12.17 4.97223H14.67V7.97223H12.67C12.12 7.97223 11.67 8.42223 11.67 8.97223V10.9722H14.67V13.9722H11.67V20.9222C16.72 20.4222 20.67 16.1622 20.67 10.9722Z" fill="black"/>
</svg> -->

<svg xmlns="http://www.w3.org/2000/svg" x="0px" y="0px" width="50" height="50" viewBox="0 0 50 50">
    <path d="M41,4H9C6.24,4,4,6.24,4,9v32c0,2.76,2.24,5,5,5h32c2.76,0,5-2.24,5-5V9C46,6.24,43.76,4,41,4z M17,20v19h-6V20H17z M11,14.47c0-1.4,1.2-2.47,3-2.47s2.93,1.07,3,2.47c0,1.4-1.12,2.53-3,2.53C12.2,17,11,15.87,11,14.47z M39,39h-6c0,0,0-9.26,0-10 c0-2-1-4-3.5-4.04h-0.08C27,24.96,26,27.02,26,29c0,0.91,0,10,0,10h-6V20h6v2.56c0,0,1.93-2.56,5.81-2.56 c3.97,0,7.19,2.73,7.19,8.26V39z"></path>
</svg>