<svg width="22" height="18" viewBox="0 0 22 18" fill="none" xmlns="http://www.w3.org/2000/svg">
<path d="M21.67 2.44724C20.9 2.79724 20.07 3.02724 19.21 3.13724C20.09 2.60724 20.77 1.76724 21.09 0.757235C20.26 1.25724 19.34 1.60724 18.37 1.80724C17.58 0.947235 16.47 0.447235 15.21 0.447235C12.86 0.447235 10.94 2.36724 10.94 4.73724C10.94 5.07724 10.98 5.40724 11.05 5.71724C7.49 5.53724 4.32 3.82723 2.21 1.23724C1.84 1.86724 1.63 2.60724 1.63 3.38724C1.63 4.87724 2.38 6.19724 3.54 6.94724C2.83 6.94724 2.17 6.74724 1.59 6.44724V6.47723C1.59 8.55723 3.07 10.2972 5.03 10.6872C4.40073 10.8594 3.7401 10.8834 3.1 10.7572C3.37161 11.6097 3.90354 12.3556 4.62102 12.8902C5.3385 13.4247 6.20545 13.7209 7.1 13.7372C5.58363 14.9377 3.704 15.5866 1.77 15.5772C1.43 15.5772 1.09 15.5572 0.75 15.5172C2.65 16.7372 4.91 17.4472 7.33 17.4472C15.21 17.4472 19.54 10.9072 19.54 5.23724C19.54 5.04724 19.54 4.86723 19.53 4.67723C20.37 4.07723 21.09 3.31724 21.67 2.44724Z" fill="black"/>
</svg>
