<svg width="21" height="15" viewBox="0 0 21 15" fill="none" xmlns="http://www.w3.org/2000/svg">
<path d="M8.66998 10.9472L13.86 7.94724L8.66998 4.94724V10.9472ZM20.23 3.11724C20.36 3.58724 20.45 4.21723 20.51 5.01723C20.58 5.81723 20.61 6.50723 20.61 7.10723L20.67 7.94724C20.67 10.1372 20.51 11.7472 20.23 12.7772C19.98 13.6772 19.4 14.2572 18.5 14.5072C18.03 14.6372 17.17 14.7272 15.85 14.7872C14.55 14.8572 13.36 14.8872 12.26 14.8872L10.67 14.9472C6.47998 14.9472 3.86998 14.7872 2.83998 14.5072C1.93998 14.2572 1.35998 13.6772 1.10998 12.7772C0.979983 12.3072 0.889983 11.6772 0.829983 10.8772C0.759983 10.0772 0.729983 9.38724 0.729983 8.78724L0.669983 7.94724C0.669983 5.75724 0.829983 4.14724 1.10998 3.11724C1.35998 2.21724 1.93998 1.63724 2.83998 1.38724C3.30998 1.25724 4.16998 1.16723 5.48998 1.10723C6.78998 1.03723 7.97998 1.00724 9.07998 1.00724L10.67 0.947235C14.86 0.947235 17.47 1.10724 18.5 1.38724C19.4 1.63724 19.98 2.21724 20.23 3.11724Z" fill="black"/>
</svg>
